<svg width="1200" height="900" viewBox="0 0 1200 900" fill="none" xmlns="http://www.w3.org/2000/svg">
  <rect width="1200" height="900" rx="48" fill="#F5F7FA"/>
  <rect x="60" y="60" width="1080" height="780" rx="40" fill="white"/>
  <rect x="120" y="140" width="360" height="240" rx="28" fill="#EAF7EF"/>
  <circle cx="280" cy="260" r="70" fill="#34B26A" fill-opacity="0.15"/>
  <circle cx="280" cy="260" r="42" fill="#34B26A"/>
  <rect x="520" y="140" width="560" height="240" rx="28" fill="#F1F8FF"/>
  <rect x="560" y="186" width="220" height="24" rx="12" fill="#2777C9" fill-opacity="0.25"/>
  <rect x="560" y="226" width="280" height="16" rx="8" fill="#21A6A6" fill-opacity="0.25"/>
  <rect x="560" y="258" width="180" height="16" rx="8" fill="#34B26A" fill-opacity="0.22"/>
  <rect x="120" y="430" width="960" height="280" rx="32" fill="#0F172A"/>
  <rect x="168" y="478" width="270" height="182" rx="24" fill="white" fill-opacity="0.08"/>
  <circle cx="304" cy="568" r="48" fill="#34B26A"/>
  <rect x="486" y="478" width="240" height="182" rx="24" fill="white" fill-opacity="0.08"/>
  <rect x="738" y="478" width="234" height="182" rx="24" fill="white" fill-opacity="0.08"/>
  <path d="M186 720C278 620 424 582 560 610C663 632 806 714 1008 648" stroke="#21A6A6" stroke-width="16" stroke-linecap="round"/>
  <path d="M174 730C270 632 412 604 548 642C667 676 810 742 1002 688" stroke="#34B26A" stroke-width="10" stroke-linecap="round" stroke-opacity="0.7"/>
</svg>
